<mxfile host="www.draw.io" modified="2019-10-22T22:03:48.770Z" agent="Mozilla/5.0 (X11; Ubuntu; Linux x86_64; rv:69.0) Gecko/20100101 Firefox/69.0" etag="KqK78tjCwQDQU6NTE7Qz" version="12.1.3" type="github" pages="1">
  <diagram id="2S3By7dkLDeCiqpGW03y" name="Page-1">
    <mxGraphModel dx="734" dy="1773" grid="1" gridSize="10" guides="1" tooltips="1" connect="1" arrows="1" fold="1" page="1" pageScale="1" pageWidth="850" pageHeight="1100" math="0" shadow="0">
      <root>
        <mxCell id="0"/>
        <mxCell id="1" parent="0"/>
        <mxCell id="s8IMLLvCdLgYI6KmpzlD-52" value="" style="whiteSpace=wrap;html=1;aspect=fixed;" parent="1" vertex="1">
          <mxGeometry y="-134" width="760" height="758" as="geometry"/>
        </mxCell>
        <mxCell id="s8IMLLvCdLgYI6KmpzlD-13" value="" style="rounded=1;whiteSpace=wrap;html=1;" parent="1" vertex="1">
          <mxGeometry x="30" y="110" width="700" height="450" as="geometry"/>
        </mxCell>
        <mxCell id="s8IMLLvCdLgYI6KmpzlD-51" value="" style="ellipse;whiteSpace=wrap;html=1;dashed=1;dashPattern=1 4;fillColor=#ffe6cc;strokeColor=#d79b00;" parent="1" vertex="1">
          <mxGeometry x="505" y="340" width="50" height="50" as="geometry"/>
        </mxCell>
        <mxCell id="s8IMLLvCdLgYI6KmpzlD-49" value="" style="ellipse;whiteSpace=wrap;html=1;dashed=1;dashPattern=1 4;fillColor=#dae8fc;strokeColor=#6c8ebf;" parent="1" vertex="1">
          <mxGeometry x="505" y="6" width="50" height="50" as="geometry"/>
        </mxCell>
        <mxCell id="s8IMLLvCdLgYI6KmpzlD-4" value="" style="edgeStyle=orthogonalEdgeStyle;rounded=0;orthogonalLoop=1;jettySize=auto;html=1;" parent="1" source="s8IMLLvCdLgYI6KmpzlD-2" target="s8IMLLvCdLgYI6KmpzlD-3" edge="1">
          <mxGeometry relative="1" as="geometry"/>
        </mxCell>
        <mxCell id="s8IMLLvCdLgYI6KmpzlD-2" value="Piruvato" style="rounded=1;whiteSpace=wrap;html=1;" parent="1" vertex="1">
          <mxGeometry x="210" y="150" width="120" height="30" as="geometry"/>
        </mxCell>
        <mxCell id="s8IMLLvCdLgYI6KmpzlD-15" value="Alanina" style="rounded=1;whiteSpace=wrap;html=1;" parent="1" vertex="1">
          <mxGeometry x="580" y="40" width="120" height="30" as="geometry"/>
        </mxCell>
        <mxCell id="s8IMLLvCdLgYI6KmpzlD-6" value="" style="edgeStyle=orthogonalEdgeStyle;rounded=0;orthogonalLoop=1;jettySize=auto;html=1;startArrow=classic;startFill=1;" parent="1" source="s8IMLLvCdLgYI6KmpzlD-3" target="s8IMLLvCdLgYI6KmpzlD-5" edge="1">
          <mxGeometry relative="1" as="geometry"/>
        </mxCell>
        <mxCell id="s8IMLLvCdLgYI6KmpzlD-3" value="Acetil-CoA" style="rounded=1;whiteSpace=wrap;html=1;" parent="1" vertex="1">
          <mxGeometry x="210" y="230" width="120" height="30" as="geometry"/>
        </mxCell>
        <mxCell id="s8IMLLvCdLgYI6KmpzlD-8" value="" style="edgeStyle=orthogonalEdgeStyle;rounded=0;orthogonalLoop=1;jettySize=auto;html=1;dashed=1;dashPattern=1 4;" parent="1" source="s8IMLLvCdLgYI6KmpzlD-5" target="s8IMLLvCdLgYI6KmpzlD-7" edge="1">
          <mxGeometry relative="1" as="geometry"/>
        </mxCell>
        <mxCell id="s8IMLLvCdLgYI6KmpzlD-5" value="Citrato" style="rounded=1;whiteSpace=wrap;html=1;" parent="1" vertex="1">
          <mxGeometry x="360" y="310" width="120" height="30" as="geometry"/>
        </mxCell>
        <mxCell id="s8IMLLvCdLgYI6KmpzlD-9" value="" style="edgeStyle=orthogonalEdgeStyle;rounded=0;orthogonalLoop=1;jettySize=auto;html=1;startArrow=classic;startFill=1;" parent="1" source="s8IMLLvCdLgYI6KmpzlD-7" edge="1">
          <mxGeometry relative="1" as="geometry">
            <mxPoint x="420" y="280" as="targetPoint"/>
            <Array as="points">
              <mxPoint x="120" y="390"/>
              <mxPoint x="120" y="280"/>
              <mxPoint x="420" y="280"/>
            </Array>
          </mxGeometry>
        </mxCell>
        <mxCell id="s8IMLLvCdLgYI6KmpzlD-26" value="" style="edgeStyle=orthogonalEdgeStyle;rounded=0;orthogonalLoop=1;jettySize=auto;html=1;startArrow=classic;startFill=1;entryX=0;entryY=0.5;entryDx=0;entryDy=0;strokeWidth=3;" parent="1" source="s8IMLLvCdLgYI6KmpzlD-7" target="s8IMLLvCdLgYI6KmpzlD-20" edge="1">
          <mxGeometry relative="1" as="geometry">
            <mxPoint x="560" y="390" as="targetPoint"/>
          </mxGeometry>
        </mxCell>
        <mxCell id="s8IMLLvCdLgYI6KmpzlD-7" value="Oxalacetato" style="rounded=1;whiteSpace=wrap;html=1;" parent="1" vertex="1">
          <mxGeometry x="360" y="375" width="120" height="30" as="geometry"/>
        </mxCell>
        <mxCell id="s8IMLLvCdLgYI6KmpzlD-11" value="" style="edgeStyle=orthogonalEdgeStyle;rounded=0;orthogonalLoop=1;jettySize=auto;html=1;" parent="1" source="s8IMLLvCdLgYI6KmpzlD-10" target="s8IMLLvCdLgYI6KmpzlD-2" edge="1">
          <mxGeometry relative="1" as="geometry"/>
        </mxCell>
        <mxCell id="s8IMLLvCdLgYI6KmpzlD-24" style="edgeStyle=orthogonalEdgeStyle;rounded=0;orthogonalLoop=1;jettySize=auto;html=1;startArrow=classic;startFill=1;strokeWidth=3;" parent="1" source="s8IMLLvCdLgYI6KmpzlD-10" target="s8IMLLvCdLgYI6KmpzlD-15" edge="1">
          <mxGeometry relative="1" as="geometry"/>
        </mxCell>
        <mxCell id="s8IMLLvCdLgYI6KmpzlD-10" value="Piruvato" style="rounded=1;whiteSpace=wrap;html=1;" parent="1" vertex="1">
          <mxGeometry x="210" y="40" width="120" height="30" as="geometry"/>
        </mxCell>
        <mxCell id="s8IMLLvCdLgYI6KmpzlD-14" value="MitocÃ´ndria" style="text;html=1;strokeColor=none;fillColor=none;align=center;verticalAlign=middle;whiteSpace=wrap;rounded=0;" parent="1" vertex="1">
          <mxGeometry x="60" y="120" width="100" height="20" as="geometry"/>
        </mxCell>
        <mxCell id="s8IMLLvCdLgYI6KmpzlD-20" value="Aspartato" style="rounded=1;whiteSpace=wrap;html=1;" parent="1" vertex="1">
          <mxGeometry x="580" y="375" width="120" height="30" as="geometry"/>
        </mxCell>
        <mxCell id="s8IMLLvCdLgYI6KmpzlD-23" value="Etc." style="text;html=1;strokeColor=none;fillColor=none;align=center;verticalAlign=middle;whiteSpace=wrap;rounded=0;" parent="1" vertex="1">
          <mxGeometry x="420" y="347.5" width="40" height="20" as="geometry"/>
        </mxCell>
        <mxCell id="s8IMLLvCdLgYI6KmpzlD-27" value="&lt;div&gt;AST&lt;/div&gt;&lt;div&gt;TGO&lt;br&gt;&lt;/div&gt;&lt;div&gt;&lt;br&gt;&lt;/div&gt;&lt;div&gt;Gene: &lt;i&gt;GOT1/2&lt;/i&gt;&lt;br&gt;&lt;/div&gt;" style="text;html=1;strokeColor=none;fillColor=none;align=center;verticalAlign=middle;whiteSpace=wrap;rounded=0;" parent="1" vertex="1">
          <mxGeometry x="510" y="380" width="40" height="20" as="geometry"/>
        </mxCell>
        <mxCell id="s8IMLLvCdLgYI6KmpzlD-28" value="&lt;div&gt;ALT&lt;/div&gt;&lt;div&gt;TGP&lt;br&gt;&lt;/div&gt;&lt;div&gt;&lt;br&gt;&lt;/div&gt;&lt;div&gt;Gene:&lt;/div&gt;&lt;div&gt;&lt;i&gt;GPT1/2&lt;/i&gt;&lt;br&gt;&lt;/div&gt;" style="text;html=1;strokeColor=none;fillColor=none;align=center;verticalAlign=middle;whiteSpace=wrap;rounded=0;" parent="1" vertex="1">
          <mxGeometry x="510" y="46" width="40" height="20" as="geometry"/>
        </mxCell>
        <mxCell id="s8IMLLvCdLgYI6KmpzlD-42" value="" style="edgeStyle=orthogonalEdgeStyle;rounded=0;orthogonalLoop=1;jettySize=auto;html=1;startArrow=classic;startFill=1;entryX=0.5;entryY=0;entryDx=0;entryDy=0;curved=1;dashed=1;dashPattern=1 4;" parent="1" source="s8IMLLvCdLgYI6KmpzlD-39" target="s8IMLLvCdLgYI6KmpzlD-40" edge="1">
          <mxGeometry relative="1" as="geometry">
            <mxPoint x="560" y="525" as="targetPoint"/>
            <Array as="points">
              <mxPoint x="420" y="390"/>
              <mxPoint x="640" y="390"/>
            </Array>
          </mxGeometry>
        </mxCell>
        <mxCell id="s8IMLLvCdLgYI6KmpzlD-39" value="Glutamato" style="rounded=1;whiteSpace=wrap;html=1;dashed=1;dashPattern=1 4;" parent="1" vertex="1">
          <mxGeometry x="360" y="510" width="120" height="30" as="geometry"/>
        </mxCell>
        <mxCell id="s8IMLLvCdLgYI6KmpzlD-40" value="a-cetoglutarato" style="rounded=1;whiteSpace=wrap;html=1;dashed=1;dashPattern=1 4;" parent="1" vertex="1">
          <mxGeometry x="580" y="510" width="120" height="30" as="geometry"/>
        </mxCell>
        <mxCell id="s8IMLLvCdLgYI6KmpzlD-45" value="" style="edgeStyle=orthogonalEdgeStyle;rounded=0;orthogonalLoop=1;jettySize=auto;html=1;startArrow=classic;startFill=1;entryX=0.5;entryY=0;entryDx=0;entryDy=0;curved=1;dashed=1;dashPattern=1 4;" parent="1" source="s8IMLLvCdLgYI6KmpzlD-46" target="s8IMLLvCdLgYI6KmpzlD-47" edge="1">
          <mxGeometry relative="1" as="geometry">
            <mxPoint x="560" y="-71" as="targetPoint"/>
            <Array as="points">
              <mxPoint x="420" y="55"/>
              <mxPoint x="640" y="55"/>
            </Array>
          </mxGeometry>
        </mxCell>
        <mxCell id="s8IMLLvCdLgYI6KmpzlD-46" value="Glutamato" style="rounded=1;whiteSpace=wrap;html=1;dashed=1;dashPattern=1 4;" parent="1" vertex="1">
          <mxGeometry x="360" y="-86" width="120" height="30" as="geometry"/>
        </mxCell>
        <mxCell id="s8IMLLvCdLgYI6KmpzlD-47" value="a-cetoglutarato" style="rounded=1;whiteSpace=wrap;html=1;dashed=1;dashPattern=1 4;" parent="1" vertex="1">
          <mxGeometry x="580" y="-86" width="120" height="30" as="geometry"/>
        </mxCell>
      </root>
    </mxGraphModel>
  </diagram>
</mxfile>
